<svg xmlns="http://www.w3.org/2000/svg" fill="none" viewBox="0 0 128 128">
<path fill="#000000" opacity="1.000000" stroke="none" 
	d="
M129.000000,49.000000 
	C129.000000,74.833328 128.935806,100.167046 129.085648,125.499489 
	C129.103302,128.484619 128.483124,129.092621 125.499756,129.083740 
	C84.000137,128.960068 42.500019,129.000000 1.000012,129.000000 
	C1.000000,87.500015 1.039926,45.999908 0.916279,4.500289 
	C0.907390,1.517058 1.516689,0.906925 4.500219,0.916164 
	C44.833164,1.041062 85.166748,1.041048 125.499687,0.916186 
	C128.482956,0.906951 129.127716,1.511458 129.088135,4.501112 
	C128.893890,19.165224 129.000000,33.833313 129.000000,49.000000 
z"/>
<path fill="#C9C1B1" opacity="1.000000" stroke="none" 
	d="
M31.314295,37.073425 
	C26.307545,30.857622 29.758831,19.318954 34.780197,13.774590 
	C42.127895,5.661590 51.410122,4.422105 61.580395,10.190872 
	C63.337620,11.187604 63.481735,9.749441 64.244087,9.270794 
	C71.370987,4.796150 78.424492,4.646738 85.806419,8.902046 
	C91.092567,11.949243 91.512512,17.640461 93.928238,22.605385 
	C90.269218,26.417187 89.174126,26.400873 85.854904,22.806990 
	C85.067139,21.954039 84.270096,21.109146 83.503326,20.235159 
	C82.671242,19.286741 82.051689,17.720343 80.389709,18.367392 
	C79.024956,18.898724 78.782005,20.259594 78.463181,21.610170 
	C77.138519,27.221601 75.358566,28.893126 70.193939,29.288094 
	C67.512955,28.383327 67.510262,24.833639 64.252304,24.639231 
	C63.209877,24.577173 62.508884,24.568680 61.463699,24.839598 
	C58.834145,25.844755 56.623013,25.697186 54.156929,24.354057 
	C52.173744,22.180748 50.224052,20.395027 49.485958,17.354898 
	C48.728806,19.626768 50.226768,20.442219 51.260872,21.879112 
	C52.327873,23.920937 52.956680,25.663065 51.834427,27.936722 
	C49.834717,29.987118 47.432034,29.423840 44.941032,30.100628 
	C44.261356,30.182570 43.986477,30.177591 43.314583,30.065872 
	C42.168060,29.619652 41.616680,29.049162 40.926117,28.097324 
	C40.412598,27.028309 40.025299,26.299152 40.023670,25.403862 
	C36.554802,28.838417 36.065430,34.353489 31.314295,37.073425 
z"/>
<path fill="#C49F67" opacity="1.000000" stroke="none" 
	d="
M25.996250,74.321350 
	C25.949434,73.971359 25.975903,73.509010 25.944305,73.279617 
	C24.529707,69.789993 26.292921,68.714310 29.520027,68.308777 
	C30.142424,68.174767 30.389977,68.126778 31.010265,68.095367 
	C33.789135,68.749443 35.208580,70.660767 36.723671,72.381622 
	C41.958977,78.327919 48.812202,77.595459 53.569206,70.179558 
	C53.738926,68.858368 54.013863,67.931381 54.463043,66.659058 
	C54.739555,65.218666 55.258865,64.343620 56.467606,63.479408 
	C57.909115,62.948895 58.905193,63.147221 60.087723,64.084869 
	C61.291317,65.772507 60.865307,67.151772 60.170223,68.862747 
	C59.800213,70.825531 60.817261,72.206352 60.965237,73.982704 
	C60.940140,74.443214 61.013561,74.616310 61.338638,74.610275 
	C62.264648,73.684067 62.630211,72.570778 63.692665,71.557343 
	C65.515968,70.527802 67.907623,70.154137 68.561882,71.306984 
	C70.852875,75.343834 74.094238,73.889122 77.592957,73.472626 
	C82.281937,75.363876 85.936852,74.884674 89.094376,70.918541 
	C90.552162,69.087425 92.903954,68.407692 95.673897,69.128510 
	C99.191559,70.303391 100.650475,72.611298 99.960197,76.518829 
	C98.523438,76.879982 97.351501,76.345322 95.688042,77.124825 
	C90.227844,79.683487 84.851234,82.809853 78.128029,82.582108 
	C77.560051,82.656342 77.333336,82.682785 76.767075,82.704193 
	C75.376732,82.646332 74.403168,82.108299 73.082199,82.334007 
	C72.143669,83.168938 71.604813,83.888397 72.874893,84.986092 
	C73.208748,85.441063 73.316261,85.648125 73.467270,86.213654 
	C73.442947,86.808617 73.375137,87.045113 73.072990,87.569107 
	C72.632195,87.990242 72.425728,88.123878 71.867538,88.359352 
	C68.121803,88.976578 64.759453,89.712807 61.271606,89.941330 
	C63.995037,90.119766 66.619118,89.153442 69.332710,88.831146 
	C71.103638,88.620819 72.512077,88.791977 73.989746,90.363853 
	C76.001183,92.718422 78.000977,94.699127 77.312981,98.246895 
	C76.338593,100.702377 74.905815,102.081223 72.194839,102.459686 
	C65.623817,102.262581 59.428627,103.373413 52.958649,101.474045 
	C49.130821,100.538849 46.199585,99.088913 45.233505,94.937439 
	C45.517387,93.812965 46.025112,93.297394 46.908398,92.697250 
	C47.657955,92.219475 48.169270,91.950958 48.655045,91.228622 
	C49.042324,90.442154 49.390911,89.954086 49.722569,89.093643 
	C50.200420,87.159943 51.199596,85.908386 52.546745,84.497391 
	C53.552738,83.929672 54.335682,83.981628 55.124619,83.984009 
	C53.127132,84.048042 51.479366,81.584984 48.930920,83.228668 
	C45.292198,83.987709 41.964859,83.292175 38.294220,83.460693 
	C37.700871,83.418388 37.464573,83.391739 36.884903,83.271072 
	C33.682251,82.051529 31.446178,79.861603 28.356285,78.429352 
	C27.833426,78.151024 27.635572,78.018196 27.201756,77.616638 
	C26.511198,76.506409 26.272629,75.590424 25.996250,74.321350 
z"/>
<path fill="#331713" opacity="1.000000" stroke="none" 
	d="
M51.067829,107.735718 
	C49.187889,113.223045 47.983803,118.846085 41.494522,120.961731 
	C39.783516,121.894745 38.274757,121.377289 36.430317,121.234192 
	C35.848591,121.003342 35.661503,120.977539 35.194168,120.910233 
	C34.505688,120.465660 34.513428,119.891312 34.131287,119.203369 
	C33.951881,119.003105 34.005383,119.018204 33.984306,119.036331 
	C31.314419,114.951759 31.580751,113.473877 35.417782,111.107002 
	C36.403645,110.498886 37.444725,109.969940 38.531372,109.588890 
	C41.601318,108.512398 41.011852,107.046829 38.966209,105.514656 
	C37.507172,104.421844 36.223488,103.150772 34.598301,101.835480 
	C32.601711,101.602379 31.005156,102.393715 28.969442,102.261307 
	C27.722164,101.918739 26.818079,101.610451 25.480536,101.465958 
	C23.639986,101.192482 22.677458,100.466225 22.740143,98.524200 
	C22.142046,96.015045 24.688871,94.613358 24.080254,92.223854 
	C22.865709,91.352913 21.980043,90.554344 22.626596,89.222275 
	C23.372356,87.685814 24.987490,87.094177 26.387623,87.618568 
	C31.719648,89.615585 33.830769,86.998306 34.779179,82.258904 
	C34.914143,81.584457 35.776867,81.529198 36.735725,81.783836 
	C37.015072,81.987007 37.000999,82.001564 37.003014,81.992355 
	C37.373745,82.363182 37.845760,82.443848 38.349407,82.497177 
	C45.131588,83.215462 45.126076,83.214684 41.667267,88.393753 
	C41.502693,88.640182 41.636791,89.042686 41.772186,89.713791 
	C41.824718,90.287376 41.828892,90.517555 41.789444,91.086929 
	C41.441692,92.767990 41.597408,94.092636 41.922783,95.735748 
	C42.225986,97.659271 43.602959,97.923332 45.135986,98.482239 
	C45.697556,98.620415 45.921257,98.684227 46.453911,98.913544 
	C47.311672,99.517311 47.776974,100.042809 48.721748,101.067719 
	C49.255081,101.818420 49.345390,102.031631 49.562935,102.565582 
	C50.346371,104.328545 51.485603,105.622200 51.067829,107.735718 
z"/>
<path fill="#AEA89E" opacity="1.000000" stroke="none" 
	d="
M69.860649,28.458496 
	C74.829338,28.644855 75.034988,24.112041 76.922951,21.510412 
	C77.653664,20.503483 77.578407,18.949299 78.157753,17.787802 
	C79.858154,14.378828 81.746628,14.221077 84.035919,17.150846 
	C84.943909,18.312868 86.269836,19.298489 86.761803,20.606520 
	C88.095726,24.153137 90.336700,24.399139 93.596931,22.963306 
	C95.411987,29.227139 98.272270,35.397133 94.217682,41.832527 
	C93.537766,42.911678 94.022110,44.724377 93.876999,46.615803 
	C92.447922,48.600201 90.780197,48.918903 88.471817,48.141735 
	C87.589760,47.614986 87.200890,47.195263 86.762878,46.299934 
	C85.434441,41.924755 82.584503,38.543434 82.361176,33.833904 
	C82.354584,32.724037 82.260727,32.000389 82.029877,30.943272 
	C82.124359,28.895151 81.368561,27.435743 80.738449,25.940189 
	C80.479698,25.326040 80.881508,26.071207 80.574577,25.483551 
	C80.129822,24.631987 80.451004,25.689465 80.203659,25.945202 
	C78.890060,29.723623 76.815392,31.955822 72.389053,31.367090 
	C70.790993,30.896313 70.056763,30.101816 69.860649,28.458496 
z"/>
<path fill="#542821" opacity="1.000000" stroke="none" 
	d="
M81.327110,119.003098 
	C77.947670,118.558189 77.697678,115.740005 76.967804,113.588203 
	C75.791672,110.120750 73.882538,107.537086 70.162338,105.948318 
	C69.800827,105.545288 69.760666,105.311737 69.899246,104.771759 
	C72.243034,103.633293 74.047462,102.287674 75.860016,100.840744 
	C79.672173,97.797562 83.598709,97.552391 88.721771,98.372154 
	C95.298050,99.424454 99.946838,103.150452 105.390747,106.381195 
	C105.239944,108.444458 106.666779,110.426254 104.257896,111.960365 
	C101.574013,110.748413 99.094887,108.791321 98.297318,113.843338 
	C91.319817,111.336975 86.167732,114.028252 81.327110,119.003098 
z"/>
<path fill="#331713" opacity="1.000000" stroke="none" 
	d="
M105.053650,105.644287 
	C103.267929,106.169373 102.564209,107.406410 101.531898,108.206734 
	C100.743149,108.818230 99.869141,108.455612 99.553238,107.538620 
	C97.820641,102.509338 95.965508,101.380608 90.204170,101.900551 
	C89.565407,101.958199 88.592995,102.036003 88.302048,101.677277 
	C83.345215,95.565346 79.545837,100.698692 75.635368,103.074455 
	C73.963272,104.090332 72.776031,105.912064 70.114090,105.193008 
	C67.882896,105.783966 65.934395,105.390564 63.602013,105.408539 
	C62.492554,102.540451 64.560661,102.676117 66.245590,102.527321 
	C67.999268,102.372467 69.838516,102.785736 71.751694,101.393944 
	C73.616211,100.785629 74.919533,100.099358 75.843140,98.351196 
	C77.010132,96.953041 78.077698,95.936211 79.831482,95.222191 
	C81.441956,94.738625 83.171272,95.016617 83.881485,93.877045 
	C85.789169,90.816032 87.717415,89.087311 91.549088,91.234154 
	C92.771881,91.919266 94.101852,89.940193 95.088844,88.948929 
	C98.769440,85.252396 100.940849,85.591927 102.749977,90.485130 
	C103.204819,91.715347 103.945351,92.882469 103.978073,94.612251 
	C104.309464,97.001732 104.633186,99.040009 104.984154,101.462723 
	C105.805641,102.941360 105.437874,104.163712 105.053650,105.644287 
z"/>
<path fill="#331713" opacity="1.000000" stroke="none" 
	d="
M95.703171,68.787857 
	C93.266792,69.799614 90.298874,70.819031 88.951439,73.208748 
	C86.099014,78.267586 82.687302,77.253693 78.487000,74.916275 
	C77.554367,74.547562 76.857864,74.326263 76.264313,74.529762 
	C71.905411,76.024223 69.639488,73.614632 67.816849,69.733643 
	C67.596855,68.119347 68.145599,67.099998 68.739929,65.661469 
	C71.533737,62.488293 74.940559,61.683998 78.952538,61.536037 
	C81.814209,63.076630 84.722130,62.727509 87.649948,63.692123 
	C90.529434,65.301949 93.460510,66.176491 95.703171,68.787857 
z"/>
<path fill="#6D3F2E" opacity="1.000000" stroke="none" 
	d="
M104.293877,94.764801 
	C102.329453,93.810318 99.714958,93.387253 100.806831,90.264137 
	C101.284019,88.899239 100.331024,88.140091 99.026276,87.804695 
	C97.868782,87.507156 97.065987,87.788002 96.778694,89.022430 
	C96.423279,90.549507 94.361618,90.763870 94.226463,92.533813 
	C93.998161,95.523514 92.470284,94.927727 91.061195,93.409195 
	C89.113205,91.309883 87.627167,90.277275 86.134087,93.881096 
	C85.416718,95.612625 83.456284,96.267693 81.342010,96.908630 
	C79.771271,95.210060 79.126602,93.098572 77.598785,91.127632 
	C77.486679,88.881653 78.624084,87.565903 80.236710,87.085808 
	C84.470253,85.825447 87.398560,82.537209 90.777840,80.694710 
	C85.014282,84.634033 81.074608,85.017082 76.926987,81.507561 
	C84.997963,80.967537 92.027939,77.988586 98.524689,73.598274 
	C98.756500,74.412697 99.068161,75.507645 99.654587,76.764572 
	C99.960922,77.370201 99.992485,77.813843 100.013351,78.592606 
	C100.807144,81.069969 99.688904,82.501022 97.972305,83.298912 
	C96.468735,83.997780 95.475548,85.160042 94.524269,85.978462 
	C96.304939,83.640099 98.973885,82.696091 102.455780,83.012939 
	C102.987022,83.243279 103.188103,83.361107 103.660599,83.699280 
	C103.850197,86.107338 105.187119,87.820808 105.826675,89.765228 
	C106.387413,91.470009 106.241684,93.282043 104.293877,94.764801 
z"/>
<path fill="#C9C1B1" opacity="1.000000" stroke="none" 
	d="
M87.934875,63.535919 
	C85.173714,64.676872 82.371094,68.033546 79.589104,63.385712 
	C79.026917,62.194817 78.447914,61.415363 78.529190,60.060165 
	C78.704552,58.336899 79.275322,57.120277 80.135468,55.670952 
	C80.385048,55.195450 80.477036,55.002201 80.704819,54.520233 
	C81.146812,53.671600 81.363106,53.072697 81.723129,52.182976 
	C82.556496,50.524952 83.333122,49.208057 84.493240,47.735649 
	C85.066971,47.183067 85.447990,46.933937 86.187561,46.628006 
	C86.747986,46.534878 86.977783,46.540630 87.502411,46.725189 
	C89.508720,46.945461 91.220200,46.986923 93.358597,47.030930 
	C94.598625,53.411327 90.785355,58.114132 87.934875,63.535919 
z"/>
<path fill="#C9C1B1" opacity="1.000000" stroke="none" 
	d="
M29.992098,63.265892 
	C30.741552,61.675404 30.708372,60.509094 30.450783,58.698799 
	C29.753159,53.796040 29.195814,48.719940 30.931965,43.401688 
	C32.443157,41.696072 33.966526,41.787136 35.940563,42.492393 
	C39.123470,43.600258 39.800343,46.223591 41.038013,48.886192 
	C41.654942,50.109879 41.904839,51.072521 42.413399,52.329071 
	C43.210320,53.767635 43.451870,54.949181 43.155327,56.567696 
	C41.311718,61.233936 37.111889,61.589417 33.214390,63.092575 
	C32.752399,63.456722 32.544861,63.574696 31.985912,63.774086 
	C31.145174,63.853676 30.682255,63.739231 29.992098,63.265892 
z"/>
<path fill="#331713" opacity="1.000000" stroke="none" 
	d="
M81.233139,119.357780 
	C81.391617,115.260590 83.099648,112.711205 87.336884,112.285942 
	C88.555573,112.163628 89.707184,111.312889 90.876228,110.767555 
	C94.108215,109.259933 96.580681,109.577377 97.818298,113.797150 
	C97.861237,118.211754 95.203781,120.369377 91.438148,121.954071 
	C89.705421,122.922379 88.163422,122.357582 86.298912,122.219971 
	C84.423515,121.186630 82.938850,120.382233 81.233139,119.357780 
z"/>
<path fill="#542821" opacity="1.000000" stroke="none" 
	d="
M34.736481,99.327415 
	C38.141361,101.839493 41.474724,104.460449 44.356956,107.508049 
	C45.604610,108.827293 43.944946,109.726151 42.638023,110.235527 
	C40.642971,111.013107 38.702499,111.945175 36.676102,112.624428 
	C33.720787,113.615059 32.974651,115.530876 33.954262,118.693878 
	C30.532085,118.479172 29.455105,115.955208 28.948444,112.614120 
	C28.087051,109.371490 29.256989,107.126228 31.211519,105.148392 
	C32.769836,103.571503 33.009869,101.229179 34.736481,99.327415 
z"/>
<path fill="#AEA89E" opacity="1.000000" stroke="none" 
	d="
M36.314247,43.797684 
	C34.600830,43.711899 33.213860,43.414585 31.474350,43.067848 
	C31.067823,41.934624 31.013834,40.850819 31.040926,39.366589 
	C31.218800,38.815216 31.315594,38.664268 31.287003,38.275368 
	C31.161617,38.037407 31.014708,37.578266 30.992229,37.338280 
	C34.029411,31.444244 37.089069,25.790199 40.422081,19.631016 
	C40.990490,22.027313 41.488201,24.125574 41.996994,26.605152 
	C41.369064,32.891579 39.412563,38.370689 36.314247,43.797684 
z"/>
<path fill="#6D3F2E" opacity="1.000000" stroke="none" 
	d="
M36.779915,81.743927 
	C35.509007,84.222763 36.158310,87.438904 33.280842,89.176025 
	C31.505789,90.247620 30.425560,91.406853 28.192106,89.851639 
	C26.762907,88.856430 23.811308,86.673553 23.846714,91.618073 
	C18.100155,90.522919 21.779284,86.720230 22.034634,83.405060 
	C24.482214,81.539322 26.280870,84.329758 28.592850,84.059090 
	C28.915201,81.585510 26.210058,79.830017 27.713428,77.186462 
	C31.289433,77.570427 33.492908,80.334488 36.779915,81.743927 
z"/>
<path fill="#C49F67" opacity="1.000000" stroke="none" 
	d="
M27.966438,76.952621 
	C27.802652,78.438408 28.810661,79.510742 29.699022,80.324005 
	C31.508493,81.980507 34.007065,82.900803 30.993856,85.949211 
	C27.897160,89.082077 26.556686,86.355438 24.678797,84.777954 
	C24.052389,84.251755 23.349045,83.817146 22.403786,83.175018 
	C19.006767,79.328186 23.384792,77.745697 24.641266,75.073990 
	C26.090290,75.049400 26.797310,75.817406 27.753342,76.755051 
	C27.972668,76.972672 27.979311,76.966324 27.966438,76.952621 
z"/>
<path fill="#542821" opacity="1.000000" stroke="none" 
	d="
M40.275867,97.301193 
	C40.033985,95.313911 40.031528,93.566391 40.034332,91.382141 
	C42.596859,90.036125 44.084728,91.503052 45.476143,93.707153 
	C46.906822,96.556000 48.292793,99.019691 51.717514,99.816124 
	C52.133770,100.142822 52.277733,100.262253 52.412357,100.662720 
	C52.246098,101.291771 52.001896,101.552864 51.924484,101.690109 
	C52.378269,101.746483 52.554134,101.816032 52.946503,102.074692 
	C53.575901,102.925697 53.990253,103.587021 53.991943,104.699211 
	C53.179466,105.915916 52.383648,106.838158 51.323738,107.919807 
	C50.070511,106.617523 49.081375,105.155823 48.034809,103.364784 
	C48.258038,102.651642 48.647022,102.518158 49.106220,102.546936 
	C48.884811,102.468300 48.650162,102.461952 48.188763,102.219444 
	C47.955780,102.017326 48.000465,101.995087 47.995697,102.019585 
	C47.547329,101.402725 47.174988,100.696259 46.188637,100.160454 
	C45.949894,99.988281 46.016426,99.977203 46.021393,100.010559 
	C44.355694,98.843307 42.360687,98.356842 40.275867,97.301193 
z"/>
<path fill="#5D4637" opacity="1.000000" stroke="none" 
	d="
M34.649757,99.081497 
	C35.386032,102.843224 34.941322,106.213799 30.992924,108.180916 
	C29.787935,108.781242 29.380684,110.195778 29.032564,111.881912 
	C27.702581,111.379128 27.989079,110.042969 27.965973,108.429016 
	C27.398294,106.157738 24.798029,106.912621 24.041016,104.764198 
	C23.963781,104.159851 23.972067,103.914062 24.086699,103.314819 
	C24.544228,102.289742 25.083841,101.822426 26.092495,101.374466 
	C27.090845,101.036766 27.789192,100.994034 28.818348,100.838593 
	C30.874296,100.222488 32.591419,99.669998 34.649757,99.081497 
z"/>
<path fill="#6D3F2E" opacity="1.000000" stroke="none" 
	d="
M51.838768,101.140579 
	C52.060108,100.863388 52.019558,100.443825 52.004684,100.233604 
	C58.321125,101.422638 64.728180,101.362427 71.619270,101.088684 
	C70.516205,105.749153 66.069763,102.754631 62.906612,104.697113 
	C62.175991,104.854477 61.940060,104.766495 61.334023,104.603134 
	C57.738064,105.619164 55.019527,104.597832 52.291557,102.236885 
	C52.025822,101.964638 51.993481,101.989609 52.013733,101.990829 
	C51.895138,101.800621 51.756283,101.609200 51.838768,101.140579 
z"/>
<path fill="#C49F67" opacity="1.000000" stroke="none" 
	d="
M103.253540,83.662979 
	C99.501839,84.840981 95.929466,85.568390 93.695923,88.989510 
	C93.030434,90.008850 91.799057,90.497322 90.757645,89.251289 
	C89.834900,88.147247 90.813980,87.388145 91.495338,86.762886 
	C94.175484,84.303368 96.918877,81.912788 99.820724,79.212173 
	C100.305824,79.098473 100.608986,79.269218 100.999588,79.694626 
	C101.475609,80.627151 101.845917,81.321060 102.860657,81.814957 
	C103.118713,81.954086 103.049286,81.969208 103.052979,81.933868 
	C103.377129,82.325752 103.510132,82.805000 103.253540,83.662979 
z"/>
<path fill="#C49F67" opacity="1.000000" stroke="none" 
	d="
M29.445942,62.968895 
	C30.294514,63.034126 30.846680,63.065292 31.808651,63.155220 
	C32.889584,64.925102 33.101486,66.611366 31.658337,68.467140 
	C31.369421,68.710609 31.090469,68.903648 30.950239,68.999069 
	C27.723867,69.714905 25.118608,69.811417 26.860430,65.033096 
	C27.468130,63.831020 27.990286,63.003624 29.445942,62.968895 
z"/>
<path fill="#C9C1B1" opacity="1.000000" stroke="none" 
	d="
M26.688511,64.921494 
	C27.482248,66.617233 26.996891,69.281044 30.575338,68.963615 
	C29.633045,70.799110 26.091469,68.984955 25.961426,72.685112 
	C22.848345,70.218895 24.083200,67.634346 26.688511,64.921494 
z"/>
<path fill="#331713" opacity="1.000000" stroke="none" 
	d="
M52.062401,102.280708 
	C54.803421,102.710373 57.581020,103.456116 60.661270,104.364807 
	C59.113293,107.057190 56.909924,105.933388 54.356339,105.061325 
	C52.989834,104.476540 52.287743,103.737579 52.062401,102.280708 
z"/>
<path fill="#975D3D" opacity="1.000000" stroke="none" 
	d="
M104.748917,106.335365 
	C104.754425,104.843361 104.799232,103.748085 104.927719,102.249977 
	C107.393631,104.560524 105.612343,108.084000 106.757835,111.103554 
	C107.088821,111.976021 105.799812,113.135857 104.095657,112.367157 
	C104.805389,110.408508 105.020226,108.608284 104.748917,106.335365 
z"/>
<path fill="#C49F67" opacity="1.000000" stroke="none" 
	d="
M22.648312,98.330276 
	C22.655972,99.820930 23.883568,100.154770 25.408012,100.528465 
	C25.961166,100.629295 26.150719,100.749962 26.363834,101.207932 
	C26.169498,101.959183 25.843859,102.261566 25.112755,102.617699 
	C24.077631,103.467804 23.276320,103.875465 21.981628,103.231689 
	C21.565258,102.531509 21.518040,102.059097 21.735600,101.263397 
	C22.070942,100.132675 22.228743,99.315659 22.648312,98.330276 
z"/>
<path fill="#66594F" opacity="1.000000" stroke="none" 
	d="
M62.535240,105.303741 
	C62.411922,104.942459 62.611553,105.000839 62.713142,105.007500 
	C64.856171,105.059608 66.897606,105.105064 69.361816,105.176697 
	C69.784584,105.202881 69.822067,105.490128 69.831528,105.634476 
	C67.445923,105.799530 65.042351,106.355957 62.535240,105.303741 
z"/>
<path fill="#C49F67" opacity="1.000000" stroke="none" 
	d="
M24.689533,103.889191 
	C25.086256,105.928757 27.843229,105.468666 27.963732,107.706207 
	C26.711212,107.119148 25.264875,106.844376 23.346550,106.877960 
	C22.844637,106.600655 22.713533,106.414345 22.570509,105.886024 
	C22.803560,104.576988 23.379223,103.945190 24.689533,103.889191 
z"/>
<path fill="#975D3D" opacity="1.000000" stroke="none" 
	d="
M27.991409,76.648117 
	C26.717180,77.153969 25.957397,76.403259 25.115765,75.240707 
	C25.005327,74.593819 25.173885,74.318436 25.712212,74.047768 
	C26.977379,74.456657 27.729624,75.183479 27.991409,76.648117 
z"/>
<path fill="#C9C1B1" opacity="1.000000" stroke="none" 
	d="
M22.948095,105.922928 
	C22.933767,106.261024 22.917419,106.526939 22.946579,106.656952 
	C18.889051,106.092461 21.877348,103.120277 21.564896,101.136261 
	C21.958921,101.428246 22.004705,101.906815 22.088604,102.744232 
	C22.818020,103.791351 23.010378,104.647629 22.948095,105.922928 
z"/>
<path fill="#AEA89E" opacity="1.000000" stroke="none" 
	d="
M36.176346,121.381317 
	C37.455887,120.993843 38.876095,120.958534 40.722412,120.961288 
	C39.782932,122.855888 37.977913,121.820457 36.176346,121.381317 
z"/>
<path fill="#AEA89E" opacity="1.000000" stroke="none" 
	d="
M86.051079,122.355179 
	C87.347603,121.983521 88.787025,121.976021 90.659164,121.979866 
	C89.701576,123.863998 87.883049,122.856255 86.051079,122.355179 
z"/>
<path fill="#C9C1B1" opacity="1.000000" stroke="none" 
	d="
M103.011734,81.675385 
	C102.116302,82.011276 101.419662,81.624504 101.123077,80.276886 
	C101.692932,80.431747 102.298851,80.914207 103.011734,81.675385 
z"/>
<path fill="#542821" opacity="1.000000" stroke="none" 
	d="
M33.922134,119.290070 
	C34.251236,119.444839 34.550591,119.886574 34.881939,120.598518 
	C34.573418,120.438164 34.232903,120.007591 33.922134,119.290070 
z"/>
<path fill="#C9C1B1" opacity="1.000000" stroke="none" 
	d="
M103.275375,84.020294 
	C103.018608,83.524147 102.985817,83.058601 103.004852,82.245804 
	C103.759979,82.102608 104.011230,82.608994 103.961784,83.608086 
	C103.931999,83.919632 103.499359,84.050903 103.275375,84.020294 
z"/>
<path fill="#C9C1B1" opacity="1.000000" stroke="none" 
	d="
M31.096102,38.267223 
	C31.420979,38.260750 31.474056,38.502537 31.221428,38.864464 
	C31.122007,38.966164 31.030586,38.497040 31.096102,38.267223 
z"/>
<path fill="#66594F" opacity="1.000000" stroke="none" 
	d="
M41.887749,57.353798 
	C41.690628,55.898205 41.403671,54.798683 40.975266,53.381001 
	C41.525394,51.724098 41.800812,50.369987 41.575691,48.813721 
	C40.790520,43.385757 43.035168,39.485882 48.006008,37.315716 
	C51.718487,35.694927 50.429371,34.332123 47.835354,32.528755 
	C47.121441,29.980785 49.179470,29.557594 50.517433,28.194166 
	C51.994198,25.987997 50.306992,24.479963 49.991493,22.385508 
	C51.206787,20.802574 52.381794,20.922926 53.802814,22.425518 
	C56.203945,22.577810 58.114475,24.722446 60.699394,23.260082 
	C61.774864,23.869787 62.534538,24.220900 63.693218,23.381380 
	C65.795532,22.852259 67.641846,22.539888 69.552505,22.216633 
	C70.062950,24.162315 68.480797,25.830816 69.677338,27.788754 
	C70.503059,28.688257 71.075035,29.341457 71.918427,30.182125 
	C72.235451,30.581530 72.281067,30.793467 72.221390,31.309664 
	C72.419411,32.170410 69.651367,32.525234 72.301010,33.340813 
	C73.863846,34.287220 73.970360,35.629745 74.142258,36.943100 
	C74.393204,31.685831 77.489830,30.096209 83.403641,32.563454 
	C85.019936,36.686466 86.409454,40.551315 87.714912,44.785500 
	C87.237556,45.546013 86.773506,45.874565 86.497314,46.670444 
	C86.453896,47.125286 86.443321,47.308144 86.357117,47.755135 
	C85.440674,49.570786 84.599846,51.122307 83.483246,52.853882 
	C82.607422,53.377399 82.513527,54.000538 82.203094,54.855766 
	C82.055954,55.126198 82.102882,55.062992 82.132950,55.088402 
	C75.522522,54.091850 68.666023,53.529430 64.692375,46.775089 
	C66.020897,49.482750 64.904739,51.709740 62.473827,51.841232 
	C58.348686,52.064381 54.825638,54.836517 50.283566,54.238426 
	C49.528214,54.251167 49.114647,54.179737 48.494316,53.893635 
	C48.267315,53.772877 47.956352,53.476089 47.796112,53.383411 
	C47.635868,53.290733 47.665779,53.681877 47.653862,53.878880 
	C47.571007,54.399654 47.709740,54.575512 48.295998,54.742020 
	C48.663822,55.030296 48.793793,55.180000 49.061222,55.610657 
	C49.444893,56.780087 49.384113,57.647858 48.854347,58.791489 
	C47.962029,59.929264 46.983536,60.496666 45.986885,61.554955 
	C44.824310,62.243958 43.895618,62.336914 42.593098,61.913307 
	C40.714108,60.567356 41.475761,59.113644 41.887749,57.353798 
z"/>
<path fill="#66594F" opacity="1.000000" stroke="none" 
	d="
M36.283833,44.172924 
	C37.080647,38.232597 38.702633,32.628670 41.711403,27.183491 
	C42.318047,27.453039 42.628017,27.919607 43.039738,28.649319 
	C43.369976,29.656591 44.026897,30.039101 44.711700,30.876930 
	C45.047966,31.677500 45.111683,32.167305 45.028397,33.031868 
	C43.220829,38.224049 40.268356,42.780296 41.753639,48.319813 
	C41.983677,49.177776 41.397324,49.861221 40.247353,50.162407 
	C38.242363,48.470287 38.551071,45.742317 36.283833,44.172924 
z"/>
<path fill="#AEA89E" opacity="1.000000" stroke="none" 
	d="
M54.048096,22.393448 
	C52.955883,22.484482 51.820942,22.251738 50.333553,22.008350 
	C46.856762,20.360203 46.733669,17.387835 46.401237,14.041478 
	C48.630333,14.492723 50.606499,14.892767 53.107525,15.399059 
	C50.259251,18.136456 52.825062,19.958933 54.048096,22.393448 
z"/>
<path fill="#AEA89E" opacity="1.000000" stroke="none" 
	d="
M50.348175,27.933826 
	C51.260109,29.993242 49.733147,30.662867 48.143776,31.697136 
	C47.652340,32.330894 47.279602,32.571579 46.481224,32.660545 
	C45.156433,32.380585 44.823814,31.467775 44.027672,30.543337 
	C43.710278,30.102657 43.638546,29.890841 43.711349,29.376308 
	C45.754349,27.968750 47.858810,27.981239 50.348175,27.933826 
z"/>
<path fill="#AEA89E" opacity="1.000000" stroke="none" 
	d="
M61.133202,16.927021 
	C60.480438,15.644243 59.677788,14.311038 61.371120,13.915081 
	C62.774376,13.586954 63.243832,15.149017 63.379990,16.186150 
	C63.633175,18.114672 62.540836,17.946091 61.133202,16.927021 
z"/>
<path fill="#5D4637" opacity="1.000000" stroke="none" 
	d="
M63.588196,23.122459 
	C63.976765,25.000109 63.282681,26.586113 61.310024,26.369371 
	C60.234783,26.251230 61.131260,24.723835 61.039883,23.546007 
	C61.778984,23.192303 62.503075,23.136297 63.588196,23.122459 
z"/>
<path fill="#5D4637" opacity="1.000000" stroke="none" 
	d="
M43.678001,29.030132 
	C43.880817,29.259565 43.905750,29.445539 43.960457,29.911396 
	C44.144772,30.322178 44.299309,30.453083 44.230293,30.789696 
	C43.118366,30.776436 42.168854,30.601917 42.957035,29.105247 
	C43.141487,28.912464 43.500122,28.986675 43.678001,29.030132 
z"/>
<path fill="#5D4637" opacity="1.000000" stroke="none" 
	d="
M49.802391,53.113716 
	C54.038109,53.232689 57.312016,49.617470 61.546345,50.606865 
	C62.788830,50.897179 64.175018,50.046310 63.974781,48.786209 
	C63.646397,46.719650 61.223976,47.469017 59.486023,46.186054 
	C61.152523,45.939976 62.562572,46.008606 63.722965,45.503586 
	C66.245979,44.405529 68.021439,43.538967 67.802544,47.784859 
	C67.669724,50.360977 72.006454,51.454857 72.307808,51.310455 
	C76.846230,49.135769 78.458267,53.857895 81.839485,55.005505 
	C81.655220,56.300396 81.147423,57.486980 80.371384,58.858120 
	C78.947807,59.952873 77.871811,61.765572 76.411514,61.259033 
	C72.620308,59.943958 69.678192,61.486927 66.696381,63.339939 
	C63.681488,65.213509 60.578735,63.495728 57.260769,63.806019 
	C56.659660,64.823586 56.317883,65.607628 55.909828,66.710373 
	C55.663696,67.159767 55.483833,67.290459 54.969162,67.438972 
	C54.418800,67.395409 54.203255,67.334023 53.697662,67.104126 
	C52.034233,66.193001 50.516571,65.646675 49.517513,63.898933 
	C48.997368,62.191334 47.710613,61.161636 47.815399,59.325504 
	C47.959850,57.984192 47.959343,56.921730 47.949677,55.460854 
	C48.287773,54.280293 49.227962,54.089382 49.802391,53.113716 
z"/>
<path fill="#542821" opacity="1.000000" stroke="none" 
	d="
M49.874180,62.749100 
	C51.479885,63.926109 52.996979,64.745743 54.731972,65.804184 
	C53.513958,68.465981 51.030952,68.777832 48.597404,69.353638 
	C46.704384,69.801552 44.695103,70.134483 42.701439,71.922424 
	C47.188961,72.691750 49.874989,67.998070 54.427265,69.533081 
	C54.292629,75.562134 43.475258,80.576157 39.194099,77.091705 
	C36.413387,74.828468 33.602608,72.442909 31.630241,68.920319 
	C31.544018,67.094978 31.050602,65.396492 32.093903,63.543564 
	C32.218456,63.213982 32.208492,63.176979 32.194748,63.163513 
	C33.175026,62.375404 34.230572,62.855171 35.558514,63.035416 
	C36.031906,63.087757 36.216408,63.103249 36.667603,63.116360 
	C37.104919,63.085693 37.275539,63.057400 37.683388,62.936615 
	C38.209991,62.627316 38.461689,62.372082 38.890640,61.863785 
	C39.771267,61.104515 40.484627,60.656620 41.680679,60.833298 
	C43.046509,60.979446 44.124496,60.967087 45.605690,60.916634 
	C47.755802,60.164902 48.722038,61.399727 49.874180,62.749100 
z"/>
<path fill="#331713" opacity="1.000000" stroke="none" 
	d="
M76.707428,81.127464 
	C80.415977,82.545418 83.819389,81.921150 87.150917,80.721733 
	C90.369835,79.562859 93.532608,78.248001 97.024406,77.531960 
	C90.669876,81.685921 86.392548,88.734604 78.064575,90.546913 
	C77.286682,91.912331 76.315086,92.099281 74.850967,91.872299 
	C74.038490,91.494759 73.632164,91.190559 73.001434,90.562325 
	C72.099510,89.536247 71.344276,88.826508 71.936501,87.481224 
	C72.251152,87.283585 72.599548,87.138596 72.758965,87.037659 
	C73.053238,86.812012 73.188087,86.687302 73.319855,86.287079 
	C73.316788,86.011581 73.095718,85.832062 72.993309,85.930984 
	C72.315964,85.331467 71.877625,84.574524 71.943420,83.198929 
	C72.389000,81.006416 73.481163,80.307861 75.601768,80.802780 
	C75.975060,81.040024 76.463669,81.095322 76.707428,81.127464 
z"/>
<path fill="#542821" opacity="1.000000" stroke="none" 
	d="
M57.321861,64.039566 
	C58.074661,62.158756 59.772427,62.681309 61.514240,62.556381 
	C64.458443,62.345234 67.983749,62.876907 68.919159,58.426983 
	C69.381409,56.227913 72.098686,55.360058 72.919243,57.369858 
	C74.585579,61.451271 77.114830,59.024952 79.728394,59.045998 
	C79.980156,60.117298 79.857155,61.191921 79.597763,62.647049 
	C76.150551,63.035801 73.480293,65.165840 70.083008,66.050156 
	C69.626366,66.388008 69.438416,66.453377 68.949539,66.489090 
	C68.454964,66.396584 68.261307,66.333725 67.795609,66.134140 
	C66.252533,65.437332 65.056900,65.871620 63.516869,66.327805 
	C62.179161,66.440300 61.270756,66.208054 60.187447,65.351707 
	C59.142990,64.764511 58.392639,64.402046 57.321861,64.039566 
z"/>
<path fill="#6D3F2E" opacity="1.000000" stroke="none" 
	d="
M40.135712,90.112595 
	C38.079193,86.386154 41.336502,85.958397 43.595951,84.819695 
	C41.810902,83.070107 39.385098,83.501335 37.276863,82.207794 
	C40.732349,81.979416 44.459671,81.975685 48.509430,82.127899 
	C49.498737,82.341316 50.159081,82.447601 51.135094,82.669113 
	C51.833687,83.024223 52.170177,83.313400 52.619011,83.949890 
	C52.829266,84.446754 52.870480,84.660835 52.774933,85.171936 
	C52.252712,86.844353 51.867256,88.219734 51.277222,89.828506 
	C47.550858,92.361092 44.020306,89.608528 40.135712,90.112595 
z"/>
<path fill="#6D3F2E" opacity="1.000000" stroke="none" 
	d="
M60.275299,75.330803 
	C59.060852,73.265030 57.714119,71.649849 57.682785,69.059349 
	C60.510162,67.223083 63.105705,64.366066 66.851730,67.599411 
	C67.603363,68.010208 67.943626,68.357216 68.338295,69.121994 
	C68.399353,72.439079 66.158066,71.384125 64.317413,71.832535 
	C65.064491,74.464554 64.821770,76.085884 61.357536,76.020462 
	C60.798485,75.915543 60.594772,75.792160 60.275299,75.330803 
z"/>
<path fill="#975D3D" opacity="1.000000" stroke="none" 
	d="
M39.836693,90.346786 
	C43.206772,85.790199 46.784462,89.379356 50.689468,90.005997 
	C50.776447,90.520226 50.480255,90.978554 50.073677,91.926109 
	C49.989105,92.746582 49.947754,93.069214 49.700874,93.584801 
	C49.562511,93.786362 49.137978,94.027290 48.912949,93.932785 
	C47.906704,93.898720 47.125496,93.959145 45.949104,94.038391 
	C43.253937,94.293243 42.090187,92.507538 40.326118,91.112793 
	C40.039593,90.945404 39.897312,90.548630 39.836693,90.346786 
z"/>
<path fill="#975D3D" opacity="1.000000" stroke="none" 
	d="
M73.884972,90.708939 
	C75.128517,90.814804 76.112617,90.828056 77.463364,90.819138 
	C80.661674,91.636284 84.031326,92.144226 81.142830,96.695984 
	C79.776970,98.038002 78.268959,98.024010 76.415710,98.103760 
	C76.330070,95.429924 74.245407,93.803528 73.157288,91.153595 
	C73.258339,90.607635 73.441933,90.611984 73.884972,90.708939 
z"/>
<path fill="#975D3D" opacity="1.000000" stroke="none" 
	d="
M71.830124,87.337875 
	C72.495506,87.970276 72.739853,88.656967 73.091110,89.598732 
	C73.272537,90.026138 73.347046,90.198471 73.281052,90.614883 
	C73.140533,90.858955 73.006889,90.987358 72.939331,91.051407 
	C70.683716,88.673317 67.932732,89.473328 66.146812,90.980461 
	C62.078056,94.414131 59.969124,92.328285 57.997551,88.410858 
	C62.501175,87.794716 66.996437,88.601662 71.830124,87.337875 
z"/>
<path fill="#975D3D" opacity="1.000000" stroke="none" 
	d="
M64.367546,72.093033 
	C64.846527,70.685143 67.014854,71.565605 67.774879,69.624207 
	C68.060028,69.120468 68.248016,68.913582 68.792450,68.927536 
	C69.781364,74.450783 74.153008,73.607231 77.879448,74.554817 
	C76.744965,75.120438 75.130417,75.086540 73.951836,75.786598 
	C71.365051,77.323112 69.622360,77.299644 69.012512,73.991173 
	C68.485168,71.130257 65.967323,73.093285 64.367546,72.093033 
z"/>
<path fill="#C9C1B1" opacity="1.000000" stroke="none" 
	d="
M51.097267,84.251236 
	C50.218407,83.691124 49.626331,83.253929 48.933060,82.550293 
	C49.195496,80.203224 50.671665,80.657692 51.854401,81.156090 
	C53.933029,82.031990 55.912300,83.143684 57.944504,84.608459 
	C56.472870,85.113678 54.989914,85.167068 53.072563,85.344711 
	C52.638168,85.468971 52.610027,85.419792 52.620552,85.393486 
	C52.667805,84.468056 51.919319,84.554970 51.097267,84.251236 
z"/>
<path fill="#C9C1B1" opacity="1.000000" stroke="none" 
	d="
M55.665497,96.213829 
	C60.063309,93.676674 60.063309,93.676674 63.267902,97.384056 
	C60.464935,98.703697 58.174068,97.669022 55.665497,96.213829 
z"/>
<path fill="#975D3D" opacity="1.000000" stroke="none" 
	d="
M66.225479,68.908798 
	C63.640808,66.300171 61.035843,67.887070 58.094059,68.727325 
	C58.426544,67.691124 59.132408,66.718170 59.865807,65.436096 
	C60.990097,65.085632 62.086845,65.044289 63.949814,65.013306 
	C65.456261,65.079720 66.100288,65.334274 66.729630,66.255226 
	C67.020996,67.324493 66.904053,68.010536 66.225479,68.908798 
z"/>
<path fill="#C9C1B1" opacity="1.000000" stroke="none" 
	d="
M72.821449,82.697121 
	C73.081978,83.674263 73.133987,84.473877 73.038445,85.651703 
	C68.609764,84.903938 68.432083,84.232399 71.769547,81.013901 
	C72.591866,81.408905 72.464233,82.024178 72.821449,82.697121 
z"/>
<path fill="#975D3D" opacity="1.000000" stroke="none" 
	d="
M59.953991,75.235214 
	C60.414482,75.163879 60.626720,75.377380 60.899223,75.836128 
	C60.851814,77.236191 61.162701,78.800629 59.239532,78.740700 
	C58.739029,78.725105 57.924782,78.203133 57.826252,77.780487 
	C57.486309,76.322227 59.006195,76.180222 59.953991,75.235214 
z"/>
<path fill="#C9C1B1" opacity="1.000000" stroke="none" 
	d="
M64.482208,84.879578 
	C66.289803,86.570412 65.082169,86.852943 63.789349,86.929955 
	C63.066650,86.973015 61.835747,87.212242 61.979397,86.017883 
	C62.098953,85.023842 63.025261,84.404823 64.482208,84.879578 
z"/>
<path fill="#6D3F2E" opacity="1.000000" stroke="none" 
	d="
M73.153053,82.580048 
	C72.269745,82.827164 72.127228,82.298592 72.049782,81.393105 
	C73.033516,79.975357 74.258217,80.132256 75.750771,80.811478 
	C75.005959,81.304634 73.728951,80.901993 73.153053,82.580048 
z"/>
<path fill="#AEA89E" opacity="1.000000" stroke="none" 
	d="
M49.945152,91.938377 
	C50.569881,92.456718 51.034878,93.108711 50.670818,93.937370 
	C50.366600,94.629829 49.754932,94.623100 48.918797,94.038116 
	C48.687916,93.838295 48.826248,93.806755 48.867661,93.864357 
	C49.491051,93.592133 49.477955,92.966080 49.807976,92.188492 
	C49.965420,91.944519 49.952835,91.951904 49.945152,91.938377 
z"/>
<path fill="#542821" opacity="1.000000" stroke="none" 
	d="
M54.820587,67.188568 
	C55.101868,66.928177 55.473091,66.976326 55.658325,67.002701 
	C56.150707,67.923752 56.244350,68.784523 55.208153,69.737236 
	C54.965778,69.970085 54.796040,69.804092 54.711098,69.721169 
	C54.210411,68.923828 54.204803,68.193138 54.820587,67.188568 
z"/>
<path fill="#C9C1B1" opacity="1.000000" stroke="none" 
	d="
M58.101990,84.885391 
	C58.437763,85.063950 58.724415,85.300484 59.011066,85.537010 
	C58.743473,85.487923 58.475876,85.438835 58.082054,85.225021 
	C57.955822,85.060287 58.052864,84.943352 58.101990,84.885391 
z"/>
<path fill="#975D3D" opacity="1.000000" stroke="none" 
	d="
M57.871078,88.150726 
	C57.530487,87.964386 57.247650,87.707504 56.964813,87.450615 
	C57.240784,87.499504 57.516758,87.548401 57.918816,87.768448 
	C58.044907,87.939598 57.928829,88.080193 57.871078,88.150726 
z"/>
<path fill="#6D3F2E" opacity="1.000000" stroke="none" 
	d="
M73.172897,86.223793 
	C73.495293,86.307190 73.459435,86.579842 73.063805,86.883133 
	C72.955254,86.769829 72.992134,86.602921 73.172897,86.223793 
z"/>
<path fill="#975D3D" opacity="1.000000" stroke="none" 
	d="
M39.946869,97.338562 
	C42.301804,96.945541 44.178707,97.758453 45.861671,99.736382 
	C43.706219,99.904663 41.264545,100.074188 39.946869,97.338562 
z"/>
<path fill="#6D3F2E" opacity="1.000000" stroke="none" 
	d="
M26.070604,100.727814 
	C25.929083,100.449699 25.863079,100.517487 25.817345,100.513062 
	C26.676632,100.015999 27.600296,100.075333 28.845308,100.595154 
	C28.598013,101.155212 28.038851,101.535454 27.143284,101.981613 
	C26.473269,101.777618 26.267950,101.434448 26.070604,100.727814 
z"/>
<path fill="#975D3D" opacity="1.000000" stroke="none" 
	d="
M46.039009,100.280106 
	C46.855244,100.120598 47.683952,100.364555 47.986073,101.713394 
	C47.369995,101.553368 46.749062,101.062645 46.039009,100.280106 
z"/>
<path fill="#975D3D" opacity="1.000000" stroke="none" 
	d="
M47.941879,102.272263 
	C48.348957,102.151886 48.742138,102.286438 49.135323,102.420990 
	C48.903358,102.596504 48.671394,102.772011 48.208405,102.991478 
	C47.960915,102.866028 47.944450,102.696609 47.941879,102.272263 
z"/>
<path fill="#542821" opacity="1.000000" stroke="none" 
	d="
M71.843735,31.448097 
	C72.117111,31.148638 72.201057,30.763445 72.195450,30.566519 
	C75.713364,30.748369 77.591621,28.708893 79.055656,25.505474 
	C82.149231,25.199881 81.981606,28.111217 83.490967,29.876167 
	C83.656357,30.835424 83.677658,31.499060 83.664688,32.492157 
	C79.840714,33.100693 75.253609,31.779156 74.468391,37.803841 
	C74.314117,38.987545 72.637352,39.383911 71.567474,39.374401 
	C69.646217,39.357327 70.624405,38.086979 71.157501,37.454552 
	C71.385628,37.183922 72.554100,37.759129 72.846283,37.479996 
	C74.042885,36.336845 72.638939,35.480705 72.155792,34.246941 
	C71.422234,33.331657 71.289154,32.579563 71.843735,31.448097 
z"/>
<path fill="#66594F" opacity="1.000000" stroke="none" 
	d="
M83.719879,29.804779 
	C81.488556,29.380520 81.004761,27.117579 79.426147,25.421383 
	C78.899467,23.620251 79.847847,22.424917 80.446793,20.950459 
	C81.605453,23.879045 82.705070,26.658409 83.719879,29.804779 
z"/>
<path fill="#542821" opacity="1.000000" stroke="none" 
	d="
M86.332474,47.269211 
	C84.853043,46.076447 84.321114,44.530991 85.278664,43.432178 
	C85.883698,42.737881 86.269730,44.636505 87.379936,45.028843 
	C87.667358,45.543285 87.703865,45.931736 87.768799,46.612091 
	C87.797234,46.903999 87.391968,46.957569 87.207108,47.044769 
	C86.865562,47.237213 86.708893,47.342453 86.332474,47.269211 
z"/>
<path fill="#331713" opacity="1.000000" stroke="none" 
	d="
M80.720474,105.559830 
	C80.729874,106.004082 80.731163,106.185768 80.648170,106.312065 
	C79.763184,107.658600 78.719589,108.829659 76.993454,108.967789 
	C76.837067,108.980309 76.349831,108.085487 76.471230,107.820282 
	C77.277893,106.058067 78.237541,104.401222 80.720474,105.559830 
z"/>
<path fill="#C49F67" opacity="1.000000" stroke="none" 
	d="
M66.317787,69.207916 
	C66.016090,68.421616 66.026070,67.649422 66.064056,66.493439 
	C66.694260,65.406960 67.452629,65.267181 68.669617,65.699738 
	C69.026634,65.905869 69.377182,66.195663 69.595749,66.259155 
	C70.099876,67.146149 70.117096,67.937370 69.341202,68.902328 
	C68.933128,69.155754 68.717361,69.163155 68.186813,69.248947 
	C67.457848,69.292244 67.043663,69.257126 66.317787,69.207916 
z"/>
<path fill="#5D4637" opacity="1.000000" stroke="none" 
	d="
M82.313812,54.950203 
	C82.280197,54.559994 82.504448,53.993793 82.968079,53.230759 
	C82.995537,53.614021 82.783607,54.194115 82.313812,54.950203 
z"/>
<path fill="#AEA89E" opacity="1.000000" stroke="none" 
	d="
M86.128723,47.327621 
	C86.112724,47.090725 86.572601,46.994034 86.797424,47.063004 
	C86.935287,47.385845 86.793411,47.603973 86.439041,47.902813 
	C86.281494,48.019264 86.144730,47.564514 86.128723,47.327621 
z"/>
<path fill="#5D4637" opacity="1.000000" stroke="none" 
	d="
M45.709160,32.037498 
	C46.435684,31.997812 46.869690,32.017540 47.627853,32.005104 
	C49.843517,33.038013 51.861919,32.139011 54.291512,32.318760 
	C52.967697,35.496025 52.858757,38.579979 48.229797,39.494469 
	C44.192818,40.292004 42.768986,44.390411 43.165363,48.528618 
	C43.341667,50.369240 44.183685,52.231361 41.178925,52.990753 
	C39.921307,52.512135 40.038765,51.578415 39.930000,50.387909 
	C40.111862,49.477737 40.667274,48.745052 40.487026,48.338665 
	C37.975273,42.675808 40.334770,37.982243 43.588520,33.179863 
	C44.350494,32.626453 44.856445,32.313457 45.709160,32.037498 
z"/>
<path fill="#AEA89E" opacity="1.000000" stroke="none" 
	d="
M36.336220,65.649902 
	C34.367378,65.879967 33.749374,64.328232 32.414345,63.336136 
	C32.127224,60.423946 34.107910,59.900318 36.118217,59.883064 
	C38.429577,59.863235 39.950752,58.712997 41.665142,57.073742 
	C43.512089,58.017414 42.969803,59.192219 42.099426,60.686775 
	C41.391506,61.478638 40.814491,61.965473 40.113853,62.710804 
	C39.466187,63.543217 38.890911,64.058205 37.951904,64.476303 
	C37.661560,64.463837 37.576904,64.515175 37.584106,64.564156 
	C37.709461,65.404236 37.112854,65.436974 36.336220,65.649902 
z"/>
<path fill="#331713" opacity="1.000000" stroke="none" 
	d="
M51.935715,100.990433 
	C52.082619,101.052032 52.105125,101.240677 52.080811,101.710678 
	C51.909168,101.805222 51.761070,101.628601 51.672379,101.425964 
	C51.642052,101.356689 51.760719,101.222183 51.935715,100.990433 
z"/>
<path fill="#975D3D" opacity="1.000000" stroke="none" 
	d="
M23.163317,106.054253 
	C22.011429,105.662292 22.038574,104.722656 22.086630,103.446503 
	C22.889950,102.813850 23.653179,102.524612 24.701992,102.116158 
	C25.195070,102.086693 25.402569,102.176453 25.422668,102.548859 
	C25.189278,103.030357 25.143290,103.229225 25.047455,103.730324 
	C24.462692,104.637535 23.927778,105.242508 23.163317,106.054253 
z"/>
<path fill="#331713" opacity="1.000000" stroke="none" 
	d="
M25.465111,102.806427 
	C25.235268,102.831497 25.134285,102.407394 25.060930,102.202164 
	C25.114323,101.588402 25.241068,101.179855 25.648449,100.610504 
	C26.132721,100.800430 26.336359,101.151161 26.673439,101.774719 
	C26.436237,102.292152 26.065596,102.536758 25.465111,102.806427 
z"/>
<path fill="#975D3D" opacity="1.000000" stroke="none" 
	d="
M50.213631,63.028908 
	C48.835331,62.467625 47.707874,61.828773 46.294651,61.034225 
	C45.382675,59.427834 46.106297,59.004852 47.688728,59.037796 
	C47.963032,60.881805 51.862148,60.218124 50.213631,63.028908 
z"/>
<path fill="#5D4637" opacity="1.000000" stroke="none" 
	d="
M71.776566,31.163263 
	C72.079155,31.859495 72.041199,32.570354 72.003754,33.639191 
	C70.387779,34.511944 68.771301,35.026718 67.154816,35.541496 
	C68.493141,33.857426 69.233032,31.732891 71.776566,31.163263 
z"/>
<path fill="#542821" opacity="1.000000" stroke="none" 
	d="
M49.642029,52.878876 
	C50.223694,53.693871 51.817982,54.158573 50.788490,55.301983 
	C50.140862,56.021286 49.258389,55.570652 48.217369,55.156376 
	C47.940514,55.062439 47.520164,54.982933 47.308090,54.955048 
	C46.935951,54.785065 46.775887,54.642967 46.846294,54.277359 
	C47.076763,54.053844 47.219543,53.590366 47.274269,53.354134 
	C47.415306,52.950809 47.501625,52.783710 47.792206,52.811203 
	C48.435112,52.968956 48.873756,52.932125 49.642029,52.878876 
z"/>
<path fill="#5D4637" opacity="1.000000" stroke="none" 
	d="
M48.004601,52.679455 
	C47.996471,53.005787 47.661240,53.072090 47.495117,53.094997 
	C46.181496,52.191814 45.690338,51.082951 46.618931,49.769020 
	C46.790691,49.525982 47.436829,49.618198 47.864021,49.555683 
	C47.913593,50.488163 47.963158,51.420643 48.004601,52.679455 
z"/>
<path fill="#331713" opacity="1.000000" stroke="none" 
	d="
M69.744324,44.197533 
	C70.101021,43.508347 70.304970,43.099636 70.508919,42.690929 
	C70.784187,43.061474 71.194038,43.395626 71.306160,43.810280 
	C71.526596,44.625496 71.594368,45.494202 70.122589,45.173046 
	C69.842651,44.821941 69.717117,44.649975 69.744324,44.197533 
z"/>
<path fill="#542821" opacity="1.000000" stroke="none" 
	d="
M69.803986,44.044113 
	C69.918602,44.096004 69.940132,44.274948 69.964920,44.723900 
	C69.691093,44.773182 69.605331,44.498940 69.803986,44.044113 
z"/>
<path fill="#5D4637" opacity="1.000000" stroke="none" 
	d="
M46.947441,54.139061 
	C47.076763,54.053844 47.083412,54.491112 47.089714,54.709137 
	C46.738773,54.774982 46.646141,54.540688 46.947441,54.139061 
z"/>
<path fill="#542821" opacity="1.000000" stroke="none" 
	d="
M45.843819,31.753456 
	C46.184029,32.717201 46.923187,33.594448 45.870499,34.096130 
	C45.554878,34.246548 44.837589,33.554142 44.083332,33.109482 
	C43.885811,32.531517 43.909275,32.091930 43.969742,31.323872 
	C44.006748,30.995405 44.035133,30.592291 44.012680,30.391783 
	C44.555473,30.637125 45.120716,31.082975 45.843819,31.753456 
z"/>
<path fill="#331713" opacity="1.000000" stroke="none" 
	d="
M55.062244,66.707169 
	C55.009346,67.613480 54.916821,68.298782 54.725227,69.311172 
	C51.235775,71.286636 47.790264,72.832428 44.472073,74.615204 
	C41.712761,76.097694 40.329647,74.464378 39.497166,72.415894 
	C38.589638,70.182747 40.709911,69.751534 42.179142,69.089310 
	C45.995216,67.369316 50.180698,67.152473 54.561455,66.096085 
	C54.949867,66.043007 55.022617,66.486153 55.062244,66.707169 
z"/>
<path fill="#66594F" opacity="1.000000" stroke="none" 
	d="
M63.122948,54.903137 
	C62.282707,57.756390 60.346554,56.158928 58.933758,56.113426 
	C58.163876,56.088627 58.486652,55.023476 58.859550,54.504612 
	C60.300728,52.499332 61.702774,53.720863 63.122948,54.903137 
z"/>
<path fill="#66594F" opacity="1.000000" stroke="none" 
	d="
M67.287582,55.184902 
	C66.496864,55.254730 66.121117,54.905941 66.287849,54.401478 
	C66.378555,54.127045 67.014748,53.790005 67.296776,53.868706 
	C68.047585,54.078205 68.335869,54.556652 67.287582,55.184902 
z"/>
<path fill="#542821" opacity="1.000000" stroke="none" 
	d="
M55.127102,54.447990 
	C55.619701,54.732677 55.883228,55.057701 56.146751,55.382721 
	C55.888500,55.512550 55.599628,55.790791 55.377617,55.744980 
	C54.648922,55.594631 54.253677,55.212490 55.127102,54.447990 
z"/>
<path fill="#66594F" opacity="1.000000" stroke="none" 
	d="
M37.989643,64.576332 
	C37.983822,63.681782 38.513988,63.154655 39.690758,63.011223 
	C39.870594,63.968365 39.489120,64.712761 37.989643,64.576332 
z"/>
<path fill="#66594F" opacity="1.000000" stroke="none" 
	d="
M36.357430,65.766495 
	C36.429207,65.421349 36.780415,65.095581 37.361469,64.691483 
	C37.603676,65.273041 37.269146,65.650627 36.357430,65.766495 
z"/>
<path fill="#6D3F2E" opacity="1.000000" stroke="none" 
	d="
M73.392883,90.868835 
	C73.133560,90.690712 73.126587,90.522461 73.158813,90.104004 
	C73.444946,90.025536 73.667923,90.224159 74.005676,90.625610 
	C73.978012,90.827278 73.811623,90.853004 73.392883,90.868835 
z"/>
<path fill="#331713" opacity="1.000000" stroke="none" 
	d="
M63.991692,65.008469 
	C65.651756,64.124840 67.238564,62.701939 69.076218,64.693985 
	C67.690567,65.956345 66.187500,65.346519 64.371780,65.261124 
	C63.973530,65.076828 63.976589,65.027824 63.991692,65.008469 
z"/>
<path fill="#5D4637" opacity="1.000000" stroke="none" 
	d="
M64.185974,65.290565 
	C65.368805,65.031624 66.764076,64.986412 68.577988,64.938080 
	C68.996620,64.934952 69.022278,65.420158 69.024460,65.663010 
	C68.291115,65.935638 67.555595,65.965408 66.456070,66.052414 
	C65.527512,65.907875 64.962967,65.706085 64.185974,65.290565 
z"/>
<path fill="#C49F67" opacity="1.000000" stroke="none" 
	d="
M50.969170,84.369064 
	C51.378990,84.333572 51.947502,84.538811 52.573540,85.055618 
	C52.130001,85.114723 51.628929,84.862267 50.969170,84.369064 
z"/>
<path fill="#C49F67" opacity="1.000000" stroke="none" 
	d="
M49.725189,92.119614 
	C49.771843,92.488716 49.578270,93.032913 49.146881,93.749535 
	C49.101032,93.379547 49.292995,92.837128 49.725189,92.119614 
z"/>
</svg>
